<svg width="32" height="71" viewBox="0 0 32 71" fill="none" xmlns="http://www.w3.org/2000/svg">
  <defs>
    <linearGradient id="marker-body" x1="16" y1="11" x2="16" y2="65" gradientUnits="userSpaceOnUse">
      <stop stop-color="#F9F9F9"/>
      <stop offset="1" stop-color="#E4E4E4"/>
    </linearGradient>
    <linearGradient id="marker-highlight" x1="21.25" y1="12.5" x2="21.25" y2="63.634" gradientUnits="userSpaceOnUse">
      <stop stop-color="#FFF" stop-opacity=".85"/>
      <stop offset="1" stop-color="#FFF" stop-opacity="0"/>
    </linearGradient>
  </defs>
  <path d="M9.993 12.247A2 2 0 0 1 11.846 11h8.308a2 2 0 0 1 1.853 1.247l4.817 11.857A16 16 0 0 1 28 30.126V65H4V30.126c0-2.065.4-4.11 1.177-6.022l4.816-11.857Z" fill="#FFF"/>
  <path d="M9.993 12.247A2 2 0 0 1 11.846 11h8.308a2 2 0 0 1 1.853 1.247l4.817 11.857A16 16 0 0 1 28 30.126V65H4V30.126c0-2.065.4-4.11 1.177-6.022l4.816-11.857Z" fill="url(#marker-body)" fill-opacity=".6"/>
  <path d="M11.847 11.25h8.306c.712 0 1.354.432 1.622 1.092l4.817 11.856A15 15 0 0 1 27.75 30.126V64.75H4.25V30.126c0-2.032.393-4.045 1.158-5.928l4.817-11.856a1.75 1.75 0 0 1 1.622-1.092Z" stroke="#000" stroke-opacity=".3" stroke-width=".5"/>
  <path d="M26 28.134v35.5h-9.5v-51l3.5-.134 6 15.634Z" fill="url(#marker-highlight)" opacity=".4"/>
  <path d="M15.075 2.762c.338-.828 1.512-.828 1.85 0L20.5 11.5h-9l3.575-8.738Z" fill="#1E1E1E"/>
  <path d="M15.306 2.857c.254-.621 1.134-.621 1.388 0l3.434 8.393h-8.256l3.434-8.393Z" stroke="#000" stroke-opacity=".3" stroke-width=".5"/>
  <path d="M4.5 33h23" stroke="#000" stroke-opacity=".15"/>
  <path d="M4.5 34h23" stroke="#FFF" stroke-opacity=".5"/>
</svg>
