<svg viewBox="0 0 30 30" fill="none" xmlns="http://www.w3.org/2000/svg">
<rect x="9" y="1" width="4" height="4" fill="currentColor"></rect>
<rect x="13" y="1" width="4" height="4" fill="currentColor"></rect>
<rect x="13" y="5" width="4" height="4" fill="currentColor"></rect>
<rect x="13" y="9" width="4" height="4" fill="currentColor"></rect>
<rect x="13" y="13" width="4" height="4" fill="currentColor"></rect>
<rect x="13" y="17" width="4" height="4" fill="currentColor"></rect>
<rect x="13" y="21" width="4" height="4" fill="currentColor"></rect>
<rect x="9" y="21" width="4" height="4" fill="currentColor"></rect>
<rect x="9" y="17" width="4" height="4" fill="currentColor"></rect>
<rect x="5" y="17" width="4" height="4" fill="currentColor"></rect>
<rect x="9" y="13" width="4" height="4" fill="currentColor"></rect>
<rect x="5" y="13" width="4" height="4" fill="currentColor"></rect>
<rect x="9" y="9" width="4" height="4" fill="currentColor"></rect>
<rect x="5" y="9" width="4" height="4" fill="currentColor"></rect>
<rect x="9" y="5" width="4" height="4" fill="currentColor"></rect>
<rect x="25" y="13" width="4" height="4" fill="currentColor"></rect>
<rect x="25" y="9" width="4" height="4" fill="currentColor"></rect>
<rect x="21" y="5" width="4" height="4" fill="currentColor"></rect>
<rect x="17" y="1" width="4" height="4" fill="currentColor"></rect>
<rect x="5" y="5" width="4" height="4" fill="currentColor"></rect>
<rect x="1" y="9" width="4" height="4" fill="currentColor"></rect>
<rect x="1" y="13" width="4" height="4" fill="currentColor"></rect>
<rect x="1" y="17" width="4" height="4" fill="currentColor"></rect>
<rect x="9" y="25" width="4" height="4" fill="currentColor"></rect>
<rect x="5" y="21" width="4" height="4" fill="currentColor"></rect>
<rect x="13" y="25" width="4" height="4" fill="currentColor"></rect>
<rect x="17" y="25" width="4" height="4" fill="currentColor"></rect>
<rect x="21" y="21" width="4" height="4" fill="currentColor"></rect>
<rect x="25" y="17" width="4" height="4" fill="currentColor"></rect>
</svg>